<?xml version="1.0" standalone="no"?><!DOCTYPE svg PUBLIC "-//W3C//DTD SVG 1.1//EN" "http://www.w3.org/Graphics/SVG/1.1/DTD/svg11.dtd"><svg t="1685717351415" class="icon" viewBox="0 0 1245 1024" version="1.1" xmlns="http://www.w3.org/2000/svg" p-id="897" xmlns:xlink="http://www.w3.org/1999/xlink" width="243.1640625" height="200"><path d="M134.325343 736.153142S575.645846 179.703469 959.425701 115.700267C511.690516 294.832638 0 1024 0 1024h498.909024a37.195578 37.195578 0 0 0-38.296606-25.562984H63.955331a1934.935975 1934.935975 0 0 1 140.740024-147.106834c255.869193-12.781492 479.71285-38.296605 633.234366-255.869194 25.562984-51.173839-19.148303-44.759157-31.977666-44.759157 121.543851-51.173839 383.779854-243.03983 345.387508-339.020697-19.148303-19.148303-31.977665-6.414681-31.977665-6.414681s198.280673-127.910661 95.741513-185.499182-358.21687 31.977665-358.216871 31.977666 19.148303-38.296605-38.296605-38.296605a711.407311 711.407311 0 0 0-377.221561 166.255137s0-51.173839-31.977665-31.977666c-441.368374 275.017496-275.065366 588.427338-275.065366 588.427339z" p-id="898" fill="#00B96B"></path></svg>